#!OML:ASF I:\salsa\salsa 7_09\Patient 1\Session 1\dancermale.ASF
:FULLY-SPECIFIED
:DEGREES
1771
root -5.23409 17.3395 0.460121 928.693 -291.276 -169.685
lowerback -11.5722 1.42887 10.8531
upperback -5.30072 1.07074 -0.11332
thorax 1.03306 0.504881 -6.10258
lowerneck -5.28432 -5.12092 -0.781558
upperneck 15.4027 -7.39183 5.43291
head 5.75521 -3.1313 1.35448
rclavicle 2.9327e-014 -8.54774e-015
rhumerus 65.4438 25.7801 -31.3295
rradius 69.694
rwrist 26.3253
rhand 10.4247 746.397
rfingers 7.12502
rthumb 35.5291 -0.0333925
lclavicle 2.9327e-014 -8.54774e-015
lhumerus 8.12751 -49.7316 62.9128
lradius 81.0597
lwrist 41.6096
lhand -9.53261 -318.002
lfingers 7.12502
lthumb 16.4337 431.321
rfemur -38.4424 -5.82936 15.472
rtibia 51.2808
rfoot -5.34454 -18.7257
rtoes 54.769
lfemur -210.386 163.455 -200.294
ltibia 31.5929
lfoot -20.2271 14.4229
ltoes -44.1236
1772
root -5.33251 17.3096 0.277309 931.844 -287.264 -166.563
lowerback -11.7666 1.89283 10.5282
upperback -5.08528 1.65795 -0.265711
thorax 1.47994 0.820857 -5.99691
lowerneck -5.7724 -4.77542 -0.792298
upperneck 15.4579 -6.97735 5.62775
head 5.85016 -2.9136 1.43309
rclavicle -6.29837e-014 3.03147e-014
rhumerus 64.9976 28.742 -30.7118
rradius 70.712
rwrist 28.9704
rhand 9.08348 746.873
rfingers 7.12502
rthumb 34.2565 0.146608
lclavicle -6.29837e-014 3.03147e-014
lhumerus 4.01618 -49.2378 70.0428
lradius 79.8952
lwrist 39.2236
lhand -10.638 -318.275
lfingers 7.12502
lthumb 15.3692 431.133
rfemur -38.8994 -7.6009 17.9318
rtibia 55.0164
rfoot -3.38543 -20.4864
rtoes 56.8467
lfemur -209.915 162.008 -201.443
ltibia 30.9599
lfoot -19.0338 15.9883
ltoes -43.805
1773
root -5.42412 17.2771 0.0977912 936.845 -283.616 -161.905
lowerback -12.2713 2.37308 10.2882
upperback -4.98108 2.24473 -0.488232
thorax 1.97543 1.13701 -5.99951
lowerneck -6.34581 -4.51512 -0.436003
upperneck 15.5983 -6.67348 5.46941
head 5.96615 -2.74967 1.33288
rclavicle 2.10347e-014 -1.06226e-014
rhumerus 64.3412 31.5706 -30.1356
rradius 71.4239
rwrist 31.4388
rhand 7.93641 747.156
rfingers 7.12502
rthumb 33.1666 0.19145
lclavicle 2.10347e-014 -1.06226e-014
lhumerus 1.01212 -48.6114 76.2836
lradius 78.3637
lwrist 36.4489
lhand -12.2035 -318.683
lfingers 7.12502
lthumb 13.8609 430.835
rfemur -39.3145 -9.45356 20.3961
rtibia 58.337
rfoot -0.318632 -22.0923
rtoes 58.8813
lfemur -210.056 161.016 -202.637
ltibia 30.6079
lfoot -17.7638 17.5889
ltoes -43.2353
1774
root -5.50383 17.2501 -0.07878 945.184 -280.246 -153.916
lowerback -12.8703 2.89236 10.0976
upperback -4.91253 2.87785 -0.747781
thorax 2.49383 1.47573 -6.0476
lowerneck -6.47614 -4.20914 0.151409
upperneck 15.2884 -6.31357 5.36654
head 5.85913 -2.56249 1.22983
rclavicle -3.88003e-014 4.17448e-014
rhumerus 63.4811 34.2545 -29.7226
rradius 71.7464
rwrist 33.7353
rhand 6.52881 747.311
rfingers 7.12502
rthumb 31.8271 0.0708283
lclavicle -3.88003e-014 4.17448e-014
lhumerus -1.01836 -47.5159 81.8149
lradius 76.3981
lwrist 34.1763
lhand -13.3275 -319.451
lfingers 7.12502
lthumb 12.7775 430.138
rfemur -39.2457 -11.2943 22.7249
rtibia 60.8958
rfoot 1.80432 -23.0416
rtoes 59.3024
lfemur -210.281 160.067 -203.775
ltibia 30.335
lfoot -16.7351 19.0479
ltoes -42.1387
1775
root -5.57396 17.226 -0.24911 961.052 -277.255 -138.235
lowerback -13.1953 3.36652 9.95957
upperback -4.88975 3.48052 -0.964538
thorax 2.80952 1.78687 -6.084
lowerneck -6.38974 -3.85728 0.665528
upperneck 14.8493 -5.85421 5.14605
head 5.67285 -2.3489 1.11362
rclavicle 2.03754e-015 -9.93923e-016
rhumerus 62.9569 36.8377 -29.1499
rradius 71.6155
rwrist 35.5855
rhand 4.93433 747.317
rfingers 7.12502
rthumb 30.3073 -0.214582
lclavicle 2.03754e-015 -9.93923e-016
lhumerus -2.29824 -45.8542 86.5567
lradius 74.3014
lwrist 32.4979
lhand -14.0217 -319.637
lfingers 7.12502
lthumb 12.1082 429.993
rfemur -38.7578 -12.8427 24.8631
rtibia 63.0552
rfoot 3.9013 -22.5719
rtoes 58.1429
lfemur -210.372 159.02 -204.78
ltibia 30.0704
lfoot -15.7863 20.4825
ltoes -41.0016
1776
root -5.64014 17.202 -0.41215 992.117 -275.549 -107.355
lowerback -13.3333 3.77466 9.96074
upperback -4.96374 4.00713 -1.11581
thorax 2.91012 2.04774 -6.14708
lowerneck -6.33429 -3.422 1.05488
upperneck 14.6102 -5.2851 5.00694
head 5.56147 -2.07416 1.04799
rclavicle -2.12078e-014 -1.63003e-014
rhumerus 62.9882 39.1842 -28.3241
rradius 71.2545
rwrist 37.5378
rhand 3.61312 747.496
rfingers 7.12502
rthumb 29.0463 -0.260225
lclavicle -2.12078e-014 -1.63003e-014
lhumerus -2.86824 -43.8019 90.4938
lradius 72.0626
lwrist 30.3938
lhand -14.2549 -319.496
lfingers 7.12502
lthumb 11.8833 430.147
rfemur -37.9833 -14.0262 26.8458
rtibia 64.5491
rfoot 5.02176 -20.949
rtoes 55.1971
lfemur -210.608 157.915 -205.586
ltibia 29.8771
lfoot -14.8372 21.8152
ltoes -40.0191
1777
root -5.70576 17.1823 -0.56756 1028.8 -276.354 -71.0621
lowerback -13.4043 4.20303 10.1804
upperback -5.24194 4.55936 -1.22072
thorax 2.77126 2.30656 -6.28639
lowerneck -6.23218 -2.90633 1.52002
upperneck 14.4601 -4.61311 4.8603
head 5.46961 -1.74177 0.973685
rclavicle 9.19379e-016 -1.23246e-014
rhumerus 63.232 41.394 -27.4966
rradius 70.6713
rwrist 39.8014
rhand 2.47474 747.841
rfingers 7.12502
rthumb 27.9585 -0.0975292
lclavicle 9.19379e-016 -1.23246e-014
lhumerus -3.07569 -41.6361 93.7475
lradius 69.7919
lwrist 27.8385
lhand -15.9132 -318.806
lfingers 7.12502
lthumb 10.2839 430.923
rfemur -37.2743 -14.8577 28.952
rtibia 65.4624
rfoot 5.22956 -18.2103
rtoes 51.2187
lfemur -211.272 156.69 -206.186
ltibia 29.7733
lfoot -13.7789 23.0752
ltoes -39.0426
1778
root -5.76526 17.1658 -0.711987 1051.64 -279.065 -48.7064
lowerback -13.3592 4.68066 10.3197
upperback -5.62997 5.20682 -1.23416
thorax 2.46039 2.60306 -6.27482
lowerneck -6.26145 -2.39776 1.78397
upperneck 14.5491 -3.92922 4.61201
head 5.47993 -1.41207 0.897589
rclavicle -3.77691e-014 1.86858e-014
rhumerus 63.9049 43.6385 -26.485
rradius 69.8275
rwrist 41.7298
rhand 1.10366 747.921
rfingers 7.12502
rthumb 26.6471 -0.22321
lclavicle -3.77691e-014 1.86858e-014
lhumerus -2.864 -39.0276 96.576
lradius 67.0268
lwrist 24.9865
lhand -18.5778 -319.628
lfingers 7.12502
lthumb 7.71268 430.211
rfemur -36.3753 -15.2247 30.8466
rtibia 65.5758
rfoot 5.39463 -15.4864
rtoes 47.1449
lfemur -212.046 155.166 -206.763
ltibia 29.5932
lfoot -12.745 24.1817
ltoes -37.8267
1779
root -5.82434 17.153 -0.847582 1063.51 -282.609 -37.3607
lowerback -13.4978 5.13022 10.3695
upperback -5.80318 5.78226 -1.11925
thorax 2.44748 2.8826 -6.06685
lowerneck -6.5285 -1.74961 1.81619
upperneck 14.6107 -3.05567 4.45732
head 5.52807 -0.996388 0.898916
rclavicle -1.33683e-014 -7.15625e-015
rhumerus 65.6108 45.5109 -24.7888
rradius 68.7983
rwrist 43.116
rhand -0.398251 747.732
rfingers 7.12502
rthumb 25.2089 -0.623283
lclavicle -1.33683e-014 -7.15625e-015
lhumerus -1.64479 -36.1445 98.3681
lradius 64.2378
lwrist 22.0895
lhand -19.2832 -319.503
lfingers 7.12502
lthumb 7.03174 430.36
rfemur -35.3215 -15.2436 32.5527
rtibia 64.9383
rfoot 5.33189 -12.5066
rtoes 43.7644
lfemur -212.823 153.522 -207.299
ltibia 29.326
lfoot -11.9631 25.0486
ltoes -36.2174
1780
root -5.88611 17.1508 -0.98062 1070.21 -286.429 -31.3448
lowerback -13.7859 5.60547 10.5599
upperback -5.89743 6.35011 -1.10149
thorax 2.6183 3.16589 -6.02232
lowerneck -6.76918 -1.10479 2.14951
upperneck 14.3922 -2.20249 4.22161
head 5.48333 -0.589915 0.825341
rclavicle 3.95333e-014 1.47101e-014
rhumerus 67.5858 47.0415 -23.1856
rradius 67.6292
rwrist 43.9215
rhand -1.80018 747.526
rfingers 7.12502
rthumb 23.865 -1.01094
lclavicle 3.95333e-014 1.47101e-014
lhumerus 0.181675 -33.6351 99.1871
lradius 61.3439
lwrist 20.4271
lhand -19.8031 -319.567
lfingers 7.12502
lthumb 6.52986 430.312
rfemur -34.2091 -14.9799 34.1095
rtibia 63.3429
rfoot 4.81846 -9.86894
rtoes 40.416
lfemur -213.723 152.12 -207.741
ltibia 28.9479
lfoot -11.1367 25.8186
ltoes -34.4127
1781
root -5.94995 17.1596 -1.10912 1074.92 -290.292 -27.4241
lowerback -14.1184 6.19447 10.7371
upperback -6.06018 7.07509 -1.33089
thorax 2.79893 3.52473 -6.19285
lowerneck -6.9285 -0.548527 3.15703
upperneck 14.2236 -1.49146 3.57907
head 5.4406 -0.242738 0.505604
rclavicle -1.1281e-014 0
rhumerus 68.9914 48.3941 -22.2833
rradius 66.3645
rwrist 44.4868
rhand -3.0484 747.19
rfingers 7.12502
rthumb 22.6675 -1.49893
lclavicle -1.1281e-014 0
lhumerus 2.05984 -31.7932 99.4575
lradius 58.5202
lwrist 19.9491
lhand -20.7421 -320.035
lfingers 7.12502
lthumb 5.62332 429.871
rfemur -33.104 -14.6061 35.4177
rtibia 60.955
rfoot 4.04394 -6.98812
rtoes 36.18
lfemur -214.696 151.134 -208.181
ltibia 28.5328
lfoot -10.3622 26.5591
ltoes -32.0893
1782
root -6.01322 17.1708 -1.23336 1078.33 -294.082 -24.7415
lowerback -14.3495 6.74794 10.7213
upperback -6.30298 7.79429 -1.47197
thorax 2.81187 3.87361 -6.16927
lowerneck -6.97299 0.0114406 3.74674
upperneck 14.2478 -0.737118 3.03351
head 5.45069 0.115633 0.288796
rclavicle 6.77607e-014 6.36111e-015
rhumerus 70.1768 49.6934 -21.4498
rradius 64.9025
rwrist 46.6229
rhand -6.0904 747.123
rfingers 7.12502
rthumb 19.7455 -1.89374
lclavicle 6.77607e-014 6.36111e-015
lhumerus 3.74418 -30.0586 99.7232
lradius 55.4302
lwrist 18.2913
lhand -20.995 -320.848
lfingers 7.12502
lthumb 5.37919 429.064
rfemur -31.7152 -14.041 36.3698
rtibia 57.6647
rfoot 2.79081 -5.22635
rtoes 32.3541
lfemur -215.572 150.54 -208.469
ltibia 28.287
lfoot -9.62436 27.3299
ltoes -29.7145
1783
root -6.07475 17.1814 -1.36112 1080.94 -297.764 -22.8001
lowerback -14.2662 7.32379 10.7589
upperback -6.70911 8.58774 -1.64807
thorax 2.50811 4.24151 -6.2357
lowerneck -6.70944 0.507361 4.15816
upperneck 14.2251 -0.0388813 2.59323
head 5.40114 0.442862 0.12978
rclavicle -3.03147e-015 -3.02153e-014
rhumerus 70.9814 50.9033 -20.9707
rradius 63.1089
rwrist 50.4576
rhand -10.9102 747.126
rfingers 7.12502
rthumb 15.107 -2.30296
lclavicle -3.03147e-015 -3.02153e-014
lhumerus 4.92129 -28.4991 99.9863
lradius 52.6221
lwrist 15.4322
lhand -22.3091 -319.565
lfingers 7.12502
lthumb 4.11026 430.375
rfemur -30.2475 -13.3277 37.0691
rtibia 53.7356
rfoot 1.39543 -3.39312
rtoes 27.695
lfemur -216.41 150.23 -208.649
ltibia 28.1809
lfoot -8.46771 28.1381
ltoes -28.2733
1784
root -6.13798 17.1946 -1.49055 1083.16 -301.405 -21.148
lowerback -13.739 7.87534 10.6949
upperback -7.31708 9.43184 -1.89714
thorax 1.76405 4.61215 -6.38546
lowerneck -6.29491 0.961502 4.59229
upperneck 14.2703 0.600372 2.2527
head 5.35267 0.753337 -0.007084
rclavicle -5.23798e-014 -1.74931e-014
rhumerus 71.9996 52.2107 -20.106
rradius 61.7267
rwrist 53.1802
rhand -13.5454 746.188
rfingers 7.12502
rthumb 12.5674 -3.41358
lclavicle -5.23798e-014 -1.74931e-014
lhumerus 5.66313 -26.8145 100.191
lradius 50.1414
lwrist 13.472
lhand -22.6321 -319.552
lfingers 7.12502
lthumb 3.79841 430.394
rfemur -28.6226 -12.0831 37.3343
rtibia 49.5513
rfoot 0.242816 -2.63131
rtoes 29.0757
lfemur -217.232 149.935 -208.821
ltibia 28.1962
lfoot -7.37606 28.8983
ltoes -26.6277
1785
root -6.21067 17.209 -1.61614 1085.2 -304.888 -19.5375
lowerback -13.3073 8.28317 10.1305
upperback -7.68943 10.1049 -1.96464
thorax 1.19376 4.92286 -6.09443
lowerneck -6.10851 1.42143 4.80342
upperneck 14.1938 1.28548 1.69375
head 5.30933 1.05493 -0.173408
rclavicle 6.43068e-014 -8.74653e-015
rhumerus 73.5788 53.315 -18.5367
rradius 60.6853
rwrist 55.1155
rhand -14.0723 744.709
rfingers 7.12502
rthumb 12.0594 -4.92365
lclavicle 6.43068e-014 -8.74653e-015
lhumerus 6.76218 -24.6241 100.392
lradius 47.9881
lwrist 12.2116
lhand -22.8958 -319.689
lfingers 7.12502
lthumb 3.54371 430.261
rfemur -27.0265 -10.2878 37.1858
rtibia 45.3189
rfoot -0.221806 -2.86064
rtoes 29.9255
lfemur -218.384 149.349 -209.296
ltibia 28.7666
lfoot -6.5705 29.4479
ltoes -24.4521
